<svg xmlns="http://www.w3.org/2000/svg" width="69.175" height="69.175" viewBox="0 0 69.175 69.175">
  <title>icon_search</title>
  <path d="M41.321,37.8c.1.091.2.179.3.265l17.432,14.8a5.747,5.747,0,0,1,2.121,4.064,4.074,4.074,0,0,1-4.055,4.246,5.675,5.675,0,0,1-4.222-2.1L38.05,41.6c-.081-.1-.165-.189-.25-.28A22.7,22.7,0,0,0,41.321,37.8M24.071,0a24.057,24.057,0,1,0,7.881,46.775L46.8,64.254a13.673,13.673,0,0,0,10.32,4.921,11.942,11.942,0,0,0,8.532-3.546c5.266-5.267,4.5-13.817-1.41-18.854L46.8,31.965A24.069,24.069,0,0,0,24.071,0Zm0,38.111a14.066,14.066,0,1,1,9.941-4.123,14.008,14.008,0,0,1-9.941,4.123Z"/>
</svg>
